<svg xmlns="http://www.w3.org/2000/svg" viewBox="0 0 512 512">
  <rect width="512" height="512" rx="108" fill="#16613a"/>
  <path fill="#dff0e4" d="M138 142h236c22 0 40 18 40 40v190c0 22-18 40-40 40H138c-22 0-40-18-40-40V182c0-22 18-40 40-40Z"/>
  <path fill="#ffffff" d="M98 210h316v42H98z"/>
  <path fill="#16613a" d="M162 110c11 0 20 9 20 20v50c0 11-9 20-20 20s-20-9-20-20v-50c0-11 9-20 20-20Zm188 0c11 0 20 9 20 20v50c0 11-9 20-20 20s-20-9-20-20v-50c0-11 9-20 20-20ZM160 300h52v52h-52v-52Zm90 0h102v30H250v-30Zm0 54h82v30h-82v-30Z"/>
</svg>
